<?xml version="1.0" standalone="no"?>
<!DOCTYPE svg PUBLIC "-//W3C//DTD SVG 20010904//EN"
 "http://www.w3.org/TR/2001/REC-SVG-20010904/DTD/svg10.dtd">
<svg version="1.0" xmlns="http://www.w3.org/2000/svg"
 width="494.000000pt" height="707.000000pt" viewBox="0 0 494.000000 707.000000"
 preserveAspectRatio="xMidYMid meet">

<g transform="translate(0.000000,707.000000) scale(0.100000,-0.100000)"
fill="#000000" stroke="none">
<path d="M4503 7047 c31 -26 34 -37 11 -37 -11 0 -14 -6 -9 -20 4 -13 1 -22
-9 -26 -17 -7 -40 -39 -50 -71 -6 -19 -4 -23 13 -23 38 0 91 38 91 64 0 9 4
16 9 16 5 0 16 3 25 6 12 4 16 0 16 -15 0 -23 18 -29 26 -8 2 7 15 14 28 15
30 2 77 21 55 21 -9 1 -23 8 -30 18 -13 15 -11 16 14 9 17 -4 27 -2 27 4 0 7
8 9 20 5 22 -7 26 5 8 23 -8 8 -8 12 -1 12 13 0 93 -72 93 -84 0 -5 -9 -6 -20
-3 -11 3 -20 1 -20 -4 0 -5 -8 -9 -17 -9 -12 0 -14 -3 -6 -11 8 -8 20 -8 45 0
18 6 45 8 61 6 27 -5 35 2 41 39 1 8 5 19 9 22 4 4 7 20 7 36 0 24 -4 28 -29
28 -16 0 -31 -6 -34 -12 -3 -10 -12 -9 -37 5 -27 14 -58 17 -198 17 l-167 -1
28 -22z m50 -54 c-7 -2 -19 -2 -25 0 -7 3 -2 5 12 5 14 0 19 -2 13 -5z"/>
<path d="M3090 7048 c0 -9 5 -20 11 -23 17 -11 18 -2 3 19 -12 17 -14 17 -14
4z"/>
<path d="M4471 7031 c-9 -6 -10 -11 -2 -15 13 -8 31 1 31 15 0 11 -11 11 -29
0z"/>
<path d="M1605 6961 c-10 -17 12 -21 25 -6 10 12 10 15 -3 15 -9 0 -18 -4 -22
-9z"/>
<path d="M4365 6910 c3 -5 14 -10 23 -10 15 0 15 2 2 10 -20 13 -33 13 -25 0z"/>
<path d="M4618 6903 c7 -3 16 -2 19 1 4 3 -2 6 -13 5 -11 0 -14 -3 -6 -6z"/>
<path d="M4572 6876 c7 -8 15 -12 17 -11 5 6 -10 25 -20 25 -5 0 -4 -6 3 -14z"/>
<path d="M4558 6743 c7 -3 16 -2 19 1 4 3 -2 6 -13 5 -11 0 -14 -3 -6 -6z"/>
<path d="M4430 6720 c0 -5 5 -10 11 -10 5 0 7 5 4 10 -3 6 -8 10 -11 10 -2 0
-4 -4 -4 -10z"/>
<path d="M4489 6718 c-6 -20 -3 -51 7 -59 9 -8 17 -4 29 15 19 28 13 46 -16
46 -10 0 -19 -1 -20 -2z"/>
<path d="M4460 6650 c0 -5 5 -10 11 -10 5 0 7 5 4 10 -3 6 -8 10 -11 10 -2 0
-4 -4 -4 -10z"/>
<path d="M4475 6610 c-3 -5 3 -10 14 -10 12 0 21 5 21 10 0 6 -6 10 -14 10 -8
0 -18 -4 -21 -10z"/>
<path d="M4703 6550 c-11 -16 -10 -18 1 -14 15 6 30 34 18 34 -4 0 -13 -9 -19
-20z"/>
<path d="M4752 6518 c3 -7 13 -15 24 -17 16 -3 17 -1 5 13 -16 19 -34 21 -29
4z"/>
<path d="M4650 6497 c0 -7 -9 -18 -20 -25 -11 -7 -20 -17 -20 -23 0 -8 4 -8
14 0 9 8 16 8 20 2 4 -5 2 -12 -4 -16 -6 -4 -8 -11 -5 -16 4 -5 -4 -9 -16 -9
-16 0 -20 -3 -12 -11 13 -13 83 -1 80 13 -1 6 4 13 12 16 8 3 11 0 7 -7 -4 -6
-2 -11 3 -11 24 0 10 40 -19 55 -19 10 -27 20 -24 30 4 8 1 15 -5 15 -6 0 -11
-6 -11 -13z"/>
<path d="M4695 6500 c3 -5 8 -10 11 -10 2 0 4 5 4 10 0 6 -5 10 -11 10 -5 0
-7 -4 -4 -10z"/>
<path d="M4727 6494 c3 -7 11 -14 19 -14 8 0 14 -5 14 -11 0 -6 -9 -9 -20 -6
-21 5 -28 -7 -10 -18 13 -8 50 4 50 16 0 13 -20 33 -42 42 -12 4 -15 2 -11 -9z"/>
<path d="M4580 6456 c0 -9 5 -16 10 -16 6 0 10 4 10 9 0 6 -4 13 -10 16 -5 3
-10 -1 -10 -9z"/>
<path d="M4520 6386 c0 -4 11 -19 25 -33 22 -25 24 -25 18 -5 -4 16 -1 22 10
22 9 0 19 -5 23 -11 4 -8 9 -8 17 0 6 6 8 13 6 16 -9 8 -99 18 -99 11z"/>
<path d="M4640 6358 c0 -11 38 -10 44 1 3 5 -5 8 -19 7 -14 0 -25 -4 -25 -8z"/>
<path d="M4490 6320 c6 -11 7 -20 2 -20 -5 0 -9 -7 -9 -15 0 -9 9 -15 23 -15
15 0 24 -8 28 -25 4 -17 11 -23 23 -18 14 6 14 8 -3 20 -19 14 -14 16 26 14
20 -2 22 0 10 9 -12 8 -9 9 11 4 15 -3 29 -1 33 4 3 5 -9 12 -26 16 -19 4 -34
2 -39 -5 -4 -7 -15 -2 -30 14 -13 13 -32 27 -42 30 -15 6 -16 4 -7 -13z"/>
<path d="M4780 6324 c-17 -9 -24 -20 -22 -34 2 -15 -3 -23 -16 -27 -15 -3 -19
-12 -18 -34 1 -19 -3 -29 -12 -29 -8 0 -10 -5 -6 -12 4 -7 7 -27 6 -45 -2 -29
0 -33 22 -33 19 0 25 6 28 28 3 28 12 31 68 17 23 -5 23 -5 3 4 -12 5 -25 17
-31 26 -5 9 -12 16 -15 16 -26 -4 -47 0 -43 8 3 4 27 8 53 7 33 -1 52 3 60 14
18 22 16 38 -4 43 -10 2 -3 2 15 0 17 -2 32 0 32 5 0 12 -46 32 -75 32 -14 0
-25 5 -25 11 0 5 4 8 9 4 5 -3 12 -1 16 5 9 14 -15 11 -45 -6z m6 -91 c-11
-11 -17 4 -9 23 7 18 8 18 11 1 2 -10 1 -21 -2 -24z m-26 7 c0 -5 -2 -10 -4
-10 -3 0 -8 5 -11 10 -3 6 -1 10 4 10 6 0 11 -4 11 -10z"/>
<path d="M4675 6300 c-3 -6 1 -13 10 -16 19 -8 30 0 20 15 -8 14 -22 14 -30 1z"/>
<path d="M4670 6259 c0 -8 -12 -10 -36 -6 -28 5 -35 3 -30 -8 2 -7 0 -15 -7
-18 -8 -2 -4 -16 13 -40 22 -32 26 -34 32 -18 4 11 11 22 17 26 6 3 11 17 11
31 0 21 4 24 20 19 24 -7 27 10 4 19 -21 8 -24 8 -24 -5z m-25 -40 c8 -25 -8
-45 -26 -33 -9 5 -8 9 7 15 17 7 17 8 2 8 -18 1 -23 12 -11 24 12 12 22 7 28
-14z"/>
<path d="M4880 6240 c0 -5 5 -10 10 -10 6 0 10 5 10 10 0 6 -4 10 -10 10 -5 0
-10 -4 -10 -10z"/>
<path d="M4690 6219 c0 -5 5 -7 10 -4 6 3 10 8 10 11 0 2 -4 4 -10 4 -5 0 -10
-5 -10 -11z"/>
<path d="M4485 6200 c3 -5 8 -10 11 -10 2 0 4 5 4 10 0 6 -5 10 -11 10 -5 0
-7 -4 -4 -10z"/>
<path d="M4870 6180 c0 -5 5 -10 11 -10 5 0 7 5 4 10 -3 6 -8 10 -11 10 -2 0
-4 -4 -4 -10z"/>
<path d="M4670 6130 c0 -5 5 -10 10 -10 6 0 10 5 10 10 0 6 -4 10 -10 10 -5 0
-10 -4 -10 -10z"/>
<path d="M4517 6099 c6 -23 9 -24 16 -5 3 8 0 17 -7 19 -10 4 -12 -1 -9 -14z"/>
<path d="M2429 6105 c-2 -2 -42 -5 -89 -6 -68 -1 -104 -9 -180 -36 -52 -18
-103 -32 -113 -29 -9 2 -24 -2 -32 -11 -8 -8 -15 -12 -15 -9 0 3 -18 -4 -40
-15 -22 -12 -40 -25 -40 -29 0 -4 -11 -11 -25 -14 -14 -4 -25 -11 -25 -16 0
-6 -6 -10 -13 -10 -8 0 -28 -15 -45 -32 -16 -18 -41 -42 -55 -54 -14 -11 -37
-44 -51 -72 -14 -28 -30 -53 -35 -57 -6 -3 -20 -20 -33 -37 -12 -17 -17 -28
-10 -24 7 4 12 2 12 -3 0 -6 -4 -11 -10 -11 -5 0 -10 -9 -10 -20 0 -11 -3 -20
-7 -20 -11 0 -33 -50 -33 -71 0 -10 -5 -21 -11 -24 -5 -4 -8 -19 -5 -33 3 -15
2 -33 -3 -41 -7 -10 -12 -8 -24 9 l-15 22 -7 -21 c-5 -15 0 -27 15 -39 20 -16
20 -18 5 -56 -13 -30 -20 -37 -36 -33 -10 3 -17 2 -14 -3 3 -4 -6 -11 -20 -14
-32 -8 -23 -33 16 -41 26 -6 42 -25 20 -25 -5 0 -11 -10 -14 -21 -4 -15 -11
-20 -22 -15 -15 5 -14 1 4 -29 11 -20 21 -46 21 -58 1 -93 -2 -132 -10 -135
-5 -2 -6 -10 -3 -18 3 -8 0 -14 -7 -14 -7 0 -6 -6 4 -16 9 -8 16 -30 17 -47 0
-24 2 -27 8 -14 4 10 10 18 14 18 23 -3 27 3 25 37 -1 36 -1 36 -5 5 -2 -18
-8 -33 -12 -33 -8 0 4 98 13 107 2 3 9 -5 16 -16 15 -29 43 -28 35 2 -5 18 -2
16 14 -8 12 -16 21 -37 21 -46 0 -8 6 -24 14 -34 12 -16 16 -17 30 -6 20 17
21 41 1 41 -20 0 -19 4 13 48 26 37 52 45 52 18 0 -7 9 -21 20 -31 18 -17 20
-17 14 -2 -5 13 0 17 21 17 18 0 29 6 32 19 4 16 9 18 30 10 31 -11 33 -11 33
1 0 22 -41 50 -65 46 -14 -3 -25 -1 -25 4 0 14 -94 5 -128 -13 -20 -10 -32
-11 -32 -5 0 6 -3 8 -6 5 -4 -3 -16 -1 -27 5 -18 9 -19 11 -4 20 10 5 17 13
17 19 0 5 7 21 16 34 12 19 20 22 33 16 10 -6 23 -6 33 0 37 20 172 -60 190
-114 7 -18 13 -25 18 -17 4 6 11 12 16 13 8 2 7 47 -2 77 -12 41 -158 78 -283
72 -30 -2 -33 -4 -27 -27 4 -14 2 -25 -4 -25 -5 0 -11 8 -12 18 0 9 -2 22 -2
29 -2 22 -16 26 -16 5 0 -11 -4 -24 -10 -27 -6 -4 -10 10 -10 34 0 22 4 42 9
45 8 5 13 26 24 101 2 11 7 28 11 37 4 9 5 22 1 28 -3 5 -2 10 2 10 5 0 13 15
19 33 5 17 15 31 22 30 12 -3 16 9 13 35 -1 6 2 12 8 12 5 0 12 13 16 29 9 41
77 71 115 51 15 -8 19 -4 24 23 8 41 50 92 68 81 10 -6 11 -5 1 7 -10 12 -8
15 10 15 12 0 25 -4 28 -9 4 -6 20 4 36 20 26 26 31 28 40 14 9 -14 11 -14 27
2 20 20 34 23 18 4 -7 -8 -6 -18 4 -31 8 -11 14 -27 14 -36 0 -35 29 -15 41
29 13 45 14 45 19 16 6 -35 40 -49 40 -17 0 33 11 51 27 45 8 -3 19 0 23 7 10
17 31 4 23 -15 -3 -8 0 -15 6 -15 6 0 11 9 11 20 0 12 9 24 23 29 27 10 77 3
77 -11 0 -5 4 -7 8 -4 4 2 14 1 22 -5 12 -7 11 -9 -5 -10 -11 -1 -26 -1 -34 0
-7 2 -10 -2 -7 -8 4 -5 20 -9 36 -9 38 1 42 -3 42 -46 0 -26 4 -36 15 -36 11
0 14 -6 10 -21 -3 -13 -1 -19 6 -16 7 2 13 14 15 26 3 21 5 21 21 7 16 -15 61
-12 61 4 0 11 50 28 78 27 20 -1 33 -17 13 -17 -5 0 -11 -11 -13 -24 -4 -22
-3 -23 18 -16 16 6 26 5 30 -2 4 -7 2 -14 -4 -16 -7 -2 -8 -11 -2 -28 5 -13 6
-24 2 -24 -4 0 0 -4 8 -10 9 -6 17 -5 23 3 4 7 5 -1 1 -17 -4 -19 -2 -31 7
-36 10 -7 10 -11 0 -24 -9 -11 -10 -16 -2 -16 6 0 11 -7 11 -15 0 -10 10 -15
28 -15 20 0 23 -3 12 -10 -12 -8 -12 -10 2 -15 10 -4 14 -14 10 -28 -3 -12 -1
-19 3 -15 5 4 14 3 22 -3 7 -6 13 -8 13 -5 0 4 9 2 20 -4 11 -6 19 -14 19 -18
-3 -20 3 -30 21 -35 14 -4 18 -10 13 -23 -4 -11 -3 -15 4 -11 7 4 9 -8 5 -38
-3 -31 -1 -45 7 -45 8 0 10 -8 6 -20 -4 -12 -2 -20 5 -20 7 0 9 -8 5 -20 -4
-14 -1 -22 11 -27 10 -4 19 -2 22 5 2 7 8 10 13 6 13 -8 11 -24 -3 -21 -16 3
-12 -54 4 -64 5 -3 8 -13 6 -22 -2 -9 2 -17 7 -18 13 -2 35 40 35 69 0 20 14
28 42 23 4 0 5 6 2 14 -4 8 -12 15 -20 15 -8 0 -14 5 -14 10 0 6 -8 10 -17 11
-15 0 -15 2 2 9 27 12 37 12 30 0 -3 -6 1 -7 9 -4 9 3 16 9 16 13 0 12 69 41
95 41 14 0 34 -9 45 -20 23 -23 23 -24 41 70 15 80 15 197 1 310 -6 47 -11 86
-11 86 -1 1 -46 60 -77 99 -8 11 -30 39 -47 62 -18 23 -35 43 -40 43 -16 0
-77 46 -77 58 0 6 -4 12 -9 12 -5 0 -23 12 -39 28 -65 61 -141 101 -250 133
-18 6 -42 19 -52 29 -16 16 -25 18 -46 10 -14 -6 -29 -8 -33 -5 -4 2 -25 5
-47 6 -21 1 -46 6 -55 10 -9 5 -18 7 -20 4z m-279 -346 c0 -11 -4 -18 -10 -14
-5 3 -7 12 -3 20 7 21 13 19 13 -6z m330 -53 c0 -2 -9 -6 -20 -9 -11 -3 -20
-1 -20 4 0 5 9 9 20 9 11 0 20 -2 20 -4z m-963 -578 c-3 -8 -6 -5 -6 6 -1 11
2 17 5 13 3 -3 4 -12 1 -19z m59 -11 c4 -4 -2 -7 -14 -7 -12 0 -22 4 -22 9 0
10 26 9 36 -2z m1419 -37 c3 -5 -1 -10 -9 -10 -9 0 -16 5 -16 10 0 6 4 10 9
10 6 0 13 -4 16 -10z m-1468 -45 c0 -8 -4 -12 -9 -9 -4 3 -8 9 -8 15 0 5 4 9
8 9 5 0 9 -7 9 -15z m63 -5 c0 -5 -5 -10 -11 -10 -5 0 -7 5 -4 10 3 6 8 10 11
10 2 0 4 -4 4 -10z m170 -36 c0 -8 -4 -12 -10 -9 -5 3 -10 10 -10 16 0 5 5 9
10 9 6 0 10 -7 10 -16z m-116 -49 c-4 -8 -8 -15 -10 -15 -2 0 -4 7 -4 15 0 8
4 15 10 15 5 0 7 -7 4 -15z"/>
<path d="M4660 6099 c0 -5 5 -7 10 -4 6 3 10 8 10 11 0 2 -4 4 -10 4 -5 0 -10
-5 -10 -11z"/>
<path d="M4240 5940 c0 -5 5 -10 10 -10 6 0 10 5 10 10 0 6 -4 10 -10 10 -5 0
-10 -4 -10 -10z"/>
<path d="M4281 5904 c0 -11 3 -14 6 -6 3 7 2 16 -1 19 -3 4 -6 -2 -5 -13z"/>
<path d="M2190 5724 c0 -8 5 -12 10 -9 6 4 8 11 5 16 -9 14 -15 11 -15 -7z"/>
<path d="M4420 5720 c0 -5 5 -10 10 -10 6 0 10 5 10 10 0 6 -4 10 -10 10 -5 0
-10 -4 -10 -10z"/>
<path d="M1265 5690 c-3 -5 1 -10 10 -10 9 0 13 5 10 10 -3 6 -8 10 -10 10 -2
0 -7 -4 -10 -10z"/>
<path d="M2067 5623 c4 -9 10 -10 24 -2 24 13 24 14 -5 14 -14 0 -22 -5 -19
-12z"/>
<path d="M2725 5360 c3 -5 8 -10 11 -10 2 0 4 5 4 10 0 6 -5 10 -11 10 -5 0
-7 -4 -4 -10z"/>
<path d="M2277 5223 c-9 -8 -67 -15 -119 -13 -21 0 -38 -4 -38 -10 0 -5 7 -10
15 -10 18 0 19 -12 4 -27 -7 -7 -8 -13 0 -17 6 -4 18 2 27 13 9 10 24 17 33
14 14 -4 14 -3 1 6 -20 14 -3 28 18 15 21 -14 72 2 72 22 0 16 -3 17 -13 7z"/>
<path d="M2850 5215 c0 -8 2 -15 4 -15 2 0 6 7 10 15 3 8 1 15 -4 15 -6 0 -10
-7 -10 -15z"/>
<path d="M2276 5108 c-9 -12 -16 -17 -16 -10 0 6 -5 12 -11 12 -6 0 -9 -6 -6
-14 4 -9 0 -12 -11 -9 -30 7 -54 -19 -47 -50 8 -30 22 -34 51 -12 26 20 61 19
73 -2 9 -16 12 -16 21 -3 8 13 10 13 10 -2 0 -19 0 -20 46 -23 23 -2 32 2 40
18 5 12 16 20 24 18 46 -12 103 -12 111 1 14 21 12 23 -37 47 -34 18 -48 20
-54 11 -5 -9 -17 -9 -51 1 -24 6 -66 11 -93 10 -43 -1 -47 0 -36 14 7 8 10 15
7 15 -3 0 -13 -10 -21 -22z"/>
<path d="M3160 5079 c0 -5 5 -7 10 -4 6 3 10 8 10 11 0 2 -4 4 -10 4 -5 0 -10
-5 -10 -11z"/>
<path d="M3069 4963 c-7 -19 -7 -28 3 -34 17 -11 38 9 38 37 0 33 -28 31 -41
-3z"/>
<path d="M2995 4950 c3 -5 10 -10 16 -10 5 0 9 5 9 10 0 6 -7 10 -16 10 -8 0
-12 -4 -9 -10z"/>
<path d="M2933 4928 c3 -12 2 -29 -3 -39 -7 -12 -5 -19 5 -23 10 -3 15 1 15
11 0 9 8 25 18 36 16 19 16 19 -5 13 -18 -6 -22 -4 -17 8 4 9 1 16 -6 16 -8 0
-10 -8 -7 -22z"/>
<path d="M2990 4910 c0 -7 -7 -18 -16 -24 -10 -8 -13 -18 -8 -31 8 -19 8 -18
14 4 3 14 12 27 19 29 10 3 12 0 8 -12 -5 -11 -1 -16 14 -16 27 0 22 27 -8 48
-17 11 -23 11 -23 2z"/>
<path d="M2910 4822 c0 -10 7 -33 16 -50 8 -18 12 -37 8 -43 -3 -6 0 -16 7
-21 11 -7 11 -11 2 -15 -16 -6 -17 -35 -1 -51 9 -9 9 -12 0 -12 -7 0 -12 -6
-12 -12 1 -7 9 -3 19 10 11 12 30 22 45 22 30 0 34 15 8 29 -14 7 -21 5 -30
-10 -7 -11 -17 -17 -22 -14 -6 4 -4 13 5 22 11 10 14 25 10 44 -6 25 -4 28 12
24 11 -4 10 -1 -4 6 -12 7 -27 27 -33 45 -13 39 -30 54 -30 26z"/>
<path d="M2947 4820 c8 -31 23 -34 47 -10 18 20 18 22 3 16 -10 -3 -27 -2 -37
4 -15 8 -17 6 -13 -10z"/>
<path d="M1486 4805 c4 -8 10 -12 15 -9 11 6 2 24 -11 24 -5 0 -7 -7 -4 -15z"/>
<path d="M1835 4800 c3 -5 8 -10 11 -10 2 0 4 5 4 10 0 6 -5 10 -11 10 -5 0
-7 -4 -4 -10z"/>
<path d="M3070 4803 c0 -17 32 -25 44 -12 8 9 7 10 -5 6 -9 -3 -22 0 -28 6 -8
8 -11 8 -11 0z"/>
<path d="M4540 4780 c0 -5 5 -10 10 -10 6 0 10 5 10 10 0 6 -4 10 -10 10 -5 0
-10 -4 -10 -10z"/>
<path d="M3150 4685 c0 -8 7 -15 15 -15 8 0 15 7 15 15 0 8 -7 15 -15 15 -8 0
-15 -7 -15 -15z"/>
<path d="M3110 4625 c-13 -13 -32 -27 -42 -31 -12 -3 -17 -12 -14 -20 3 -8 -3
-31 -14 -52 -17 -32 -18 -37 -5 -40 8 -2 15 -7 15 -10 0 -8 -89 -133 -200
-281 -41 -55 -95 -129 -120 -164 -25 -36 -91 -114 -146 -173 -56 -60 -123
-138 -149 -174 -27 -36 -76 -99 -110 -140 -34 -41 -98 -124 -144 -185 -119
-159 -196 -258 -224 -286 -13 -13 -82 -100 -152 -194 -227 -301 -426 -546
-513 -634 -27 -27 -36 -31 -43 -20 -12 19 -11 74 2 129 6 25 13 86 14 135 4
117 21 240 39 290 8 22 15 50 16 62 0 12 4 24 9 27 4 3 14 33 21 66 10 49 10
68 1 98 -10 30 -10 48 -1 82 31 118 84 259 134 357 30 59 69 142 86 183 18 41
36 79 41 85 5 5 9 19 9 32 0 12 6 26 13 30 12 8 31 35 44 63 4 8 17 23 30 33
19 15 22 26 19 60 -6 69 -17 103 -37 116 -22 13 -37 0 -81 -72 -13 -22 -42
-68 -66 -105 -49 -75 -132 -223 -180 -320 -70 -141 -152 -318 -158 -342 -6
-23 -53 -131 -75 -172 -5 -10 -9 -24 -9 -32 0 -8 -12 -43 -26 -78 -14 -35 -31
-74 -36 -88 -18 -44 -51 -104 -64 -121 -8 -8 -14 -24 -14 -35 -1 -10 -7 -30
-15 -44 -8 -14 -14 -37 -15 -53 0 -15 -4 -35 -10 -45 -18 -31 -61 -166 -76
-235 -13 -62 -13 -225 0 -245 4 -7 -7 -147 -19 -242 -19 -143 -20 -179 -9
-194 8 -11 9 -29 3 -53 -4 -20 -5 -41 -2 -46 3 -6 1 -7 -5 -3 -14 9 -15 -3 -2
-24 5 -9 5 -19 -1 -26 -6 -8 -6 -14 0 -18 16 -11 0 -42 -27 -53 -27 -11 -27
-11 -4 -18 24 -8 30 -30 10 -38 -10 -4 -10 -8 1 -15 9 -7 10 -12 2 -16 -6 -4
-11 -15 -11 -26 0 -10 -6 -20 -14 -23 -11 -4 -14 -20 -11 -59 4 -64 -3 -98
-20 -98 -9 0 -13 -15 -13 -42 -1 -84 -2 -98 -9 -98 -5 0 -17 -19 -28 -41 -11
-23 -27 -47 -37 -53 -22 -13 -23 -26 -3 -26 21 0 19 -16 -5 -40 -24 -24 -42
-26 -34 -5 4 9 0 15 -8 15 -21 0 -23 -139 -2 -147 22 -8 17 -22 -6 -16 -13 3
-20 0 -21 -8 -5 -48 -7 -60 -12 -65 -8 -8 28 -85 44 -95 11 -7 11 -9 -2 -9 -9
0 -19 -8 -23 -17 -3 -10 -9 -24 -12 -31 -4 -8 0 -10 12 -5 12 4 15 2 10 -8 -3
-8 -9 -22 -12 -31 -4 -10 -13 -18 -21 -18 -8 0 -13 -6 -10 -13 7 -18 -12 -39
-48 -56 -24 -12 -27 -15 -12 -19 12 -2 16 -9 13 -19 -3 -8 -6 -28 -6 -45 0
-30 0 -30 -24 -14 -15 10 -27 12 -31 6 -3 -6 1 -10 9 -10 9 0 16 -4 16 -10 0
-5 -5 -10 -11 -10 -5 0 -7 -6 -3 -12 6 -9 3 -9 -9 1 -22 17 -47 7 -47 -19 0
-14 10 -24 30 -31 35 -13 36 -18 10 -52 -11 -14 -20 -34 -20 -44 0 -10 -5 -24
-12 -31 -9 -9 492 -12 2255 -12 l2267 0 0 1485 0 1485 -25 0 c-14 0 -25 -6
-26 -12 0 -7 -5 -2 -11 12 -6 14 -10 32 -9 40 1 11 -1 10 -9 -3 -6 -9 -15 -15
-19 -12 -5 2 -8 -3 -7 -12 0 -9 -5 -18 -13 -21 -8 -3 -11 0 -7 7 8 12 -16 41
-35 41 -8 0 -8 4 -2 13 15 18 -19 48 -38 33 -26 -20 -21 -53 9 -65 19 -8 20
-10 5 -7 -14 2 -24 -2 -28 -13 -5 -13 -9 -12 -25 9 -10 14 -22 21 -26 17 -4
-4 -2 -7 4 -7 7 0 11 -12 11 -27 -2 -24 -2 -25 -6 -5 -2 12 -11 22 -19 22 -8
0 -14 9 -14 20 0 20 -17 26 -62 22 -12 -1 -18 5 -18 18 0 24 -8 25 -38 4 -12
-8 -22 -10 -22 -5 0 21 -19 11 -23 -11 -4 -19 -4 -19 -6 5 -1 21 -6 27 -18 25
-11 -2 -17 2 -15 10 1 8 -2 11 -8 7 -7 -4 -22 3 -35 15 -13 12 -28 19 -33 16
-5 -3 -21 3 -35 14 -14 11 -35 20 -46 20 -11 0 -26 8 -32 18 -7 11 -20 17 -33
15 -14 -2 -45 16 -93 54 -39 32 -102 83 -140 113 -37 31 -79 63 -93 71 -14 9
-56 47 -95 83 -38 37 -84 74 -102 81 -37 16 -76 49 -181 155 -81 81 -140 186
-149 264 -3 23 -18 82 -35 131 -25 73 -31 111 -34 200 -4 110 -21 183 -54 235
-9 14 -20 33 -23 44 -4 10 -13 16 -20 13 -8 -3 -19 4 -25 14 -17 26 -44 24
-72 -6z m-1767 -1637 c-9 -50 -21 -55 -19 -9 0 25 5 41 13 41 9 0 11 -10 6
-32z m3207 0 c0 -12 -3 -18 -7 -14 -11 10 -12 36 -2 36 5 0 9 -10 9 -22z m55
12 c3 -5 1 -10 -4 -10 -6 0 -11 5 -11 10 0 6 2 10 4 10 3 0 8 -4 11 -10z m265
-40 c0 -5 -7 -10 -15 -10 -8 0 -15 5 -15 10 0 6 7 10 15 10 8 0 15 -4 15 -10z
m-130 -16 c0 -8 -5 -12 -10 -9 -6 4 -8 11 -5 16 9 14 15 11 15 -7z m-84 -30
c-4 -9 -9 -15 -11 -12 -3 3 -3 13 1 22 4 9 9 15 11 12 3 -3 3 -13 -1 -22z
m-4011 -2128 c-13 -9 -15 -15 -6 -20 6 -4 9 -12 5 -17 -8 -13 -24 -1 -24 18 0
16 31 45 39 37 3 -2 -4 -10 -14 -18z"/>
<path d="M4840 4630 c0 -5 7 -10 15 -10 8 0 15 5 15 10 0 6 -7 10 -15 10 -8 0
-15 -4 -15 -10z"/>
<path d="M2050 4594 c-14 -8 -31 -12 -37 -9 -8 3 -13 -4 -13 -16 0 -18 4 -20
28 -13 15 4 39 8 55 9 15 2 34 3 42 4 26 2 17 19 -16 30 -18 6 -32 11 -33 10
-1 -1 -12 -7 -26 -15z"/>
<path d="M3005 4600 c-3 -5 -1 -10 4 -10 6 0 11 5 11 10 0 6 -2 10 -4 10 -3 0
-8 -4 -11 -10z"/>
<path d="M1827 4557 c2 -23 3 -52 3 -63 0 -12 8 -25 18 -28 9 -3 23 -9 30 -12
6 -3 12 0 12 8 0 7 14 25 31 39 l31 25 -23 25 c-24 26 -47 37 -84 45 -18 3
-20 -1 -18 -39z"/>
<path d="M2989 4554 c-6 -16 -16 -39 -22 -51 -5 -12 -7 -29 -3 -38 3 -9 2 -13
-4 -10 -6 3 -10 1 -10 -4 0 -18 39 -12 49 8 9 16 9 31 0 66 -1 6 1 18 6 28 4
10 5 21 2 24 -4 3 -11 -7 -18 -23z"/>
<path d="M1611 4474 c0 -11 3 -14 6 -6 3 7 2 16 -1 19 -3 4 -6 -2 -5 -13z"/>
<path d="M3010 4445 c0 -8 2 -15 4 -15 2 0 6 7 10 15 3 8 1 15 -4 15 -6 0 -10
-7 -10 -15z"/>
<path d="M1821 4441 c-16 -11 -4 -34 14 -27 7 2 18 -1 24 -7 7 -7 11 -7 11 -1
0 19 -35 43 -49 35z"/>
<path d="M1627 4434 c-8 -8 3 -34 14 -34 5 0 9 9 9 20 0 19 -11 26 -23 14z"/>
<path d="M1888 4415 c-4 -4 -4 -14 -1 -23 5 -12 2 -14 -12 -9 -14 6 -16 5 -6
-6 9 -11 8 -17 -3 -27 -9 -6 -20 -9 -26 -5 -5 3 -10 -1 -10 -9 0 -9 -5 -16
-12 -16 -6 0 -3 -6 7 -14 11 -8 20 -27 20 -42 2 -27 5 -29 41 -29 26 -1 39 -6
39 -14 0 -17 38 -32 46 -19 3 5 20 10 37 11 18 1 30 7 29 12 -4 11 -68 34
-103 37 -12 1 -22 5 -22 8 2 22 -4 31 -17 26 -8 -3 -15 -2 -15 3 0 14 52 20
96 12 32 -6 46 -4 62 9 22 18 20 32 -4 23 -8 -3 -20 0 -28 6 -7 6 -16 8 -19 4
-4 -3 -7 -2 -7 4 0 5 -18 16 -40 23 -21 7 -40 19 -42 27 -2 8 -6 12 -10 8z"/>
<path d="M2105 4361 c3 -6 -2 -14 -12 -19 -14 -8 -7 -12 30 -17 27 -4 63 -5
80 -2 18 3 49 -1 69 -8 32 -11 38 -10 43 3 4 10 -3 23 -17 33 -19 15 -25 16
-38 4 -17 -14 -70 -13 -113 4 -35 13 -50 14 -42 2z"/>
<path d="M1630 4340 c0 -5 5 -10 11 -10 5 0 7 5 4 10 -3 6 -8 10 -11 10 -2 0
-4 -4 -4 -10z"/>
<path d="M1651 4284 c0 -11 3 -14 6 -6 3 7 2 16 -1 19 -3 4 -6 -2 -5 -13z"/>
<path d="M2392 4267 c-9 -11 -10 -17 -2 -22 15 -9 23 -1 18 21 -3 15 -4 16
-16 1z"/>
<path d="M4271 4262 c-6 -11 -23 -22 -39 -25 -24 -5 -29 -11 -30 -36 -1 -30 0
-30 23 -15 13 9 29 13 35 9 5 -3 10 2 10 13 0 12 9 22 21 25 13 4 19 12 17 23
-5 25 -25 28 -37 6z"/>
<path d="M1654 4220 c6 -34 -1 -38 -20 -12 -12 15 -13 14 -12 -10 2 -19 8 -28
20 -28 9 0 20 -9 23 -20 3 -11 12 -20 19 -20 7 0 22 -13 34 -30 13 -16 30 -30
40 -30 10 0 22 -12 29 -30 11 -30 33 -41 33 -17 0 8 -11 36 -25 63 -14 27 -25
55 -25 62 0 6 -4 12 -10 12 -5 0 -10 -8 -10 -17 0 -26 -58 43 -65 78 -9 41
-40 40 -31 -1z"/>
<path d="M1775 4190 c3 -5 11 -10 16 -10 6 0 7 5 4 10 -3 6 -11 10 -16 10 -6
0 -7 -4 -4 -10z"/>
<path d="M4410 4187 c0 -19 16 -31 24 -18 3 5 -1 14 -9 21 -12 10 -15 10 -15
-3z"/>
<path d="M4257 4145 c-5 -11 0 -15 19 -15 16 0 24 5 22 13 -7 18 -35 20 -41 2z"/>
<path d="M4357 4137 c-7 -19 18 -38 32 -24 6 6 11 17 11 24 0 17 -36 17 -43 0z"/>
<path d="M1885 3950 c3 -5 11 -10 16 -10 6 0 7 5 4 10 -3 6 -11 10 -16 10 -6
0 -7 -4 -4 -10z"/>
<path d="M2250 3916 c-25 -6 -51 -15 -59 -20 -10 -6 -16 -6 -19 2 -2 7 -11 12
-20 11 -11 0 -12 -2 -4 -6 6 -2 12 -9 12 -14 0 -6 -4 -8 -9 -4 -5 3 -13 1 -16
-5 -4 -6 -15 -8 -26 -5 -15 5 -19 1 -19 -19 0 -20 -5 -26 -22 -26 -18 -1 -20
-2 -8 -9 17 -10 48 -14 99 -12 25 1 32 5 27 16 -4 11 2 15 21 15 47 0 93 22
100 48 4 18 8 21 14 10 6 -9 9 -7 9 10 0 25 -10 26 -80 8z"/>
<path d="M2055 3900 c3 -5 8 -10 11 -10 2 0 4 5 4 10 0 6 -5 10 -11 10 -5 0
-7 -4 -4 -10z"/>
<path d="M2110 3899 c0 -5 5 -7 10 -4 6 3 10 8 10 11 0 2 -4 4 -10 4 -5 0 -10
-5 -10 -11z"/>
<path d="M1728 3872 c-12 -2 -18 -13 -18 -30 l0 -26 21 21 c24 24 22 40 -3 35z"/>
<path d="M4414 3306 c-8 -21 -1 -69 11 -73 13 -4 38 54 31 72 -7 19 -35 19
-42 1z"/>
<path d="M4845 3260 c-3 -5 -1 -10 4 -10 6 0 11 5 11 10 0 6 -2 10 -4 10 -3 0
-8 -4 -11 -10z"/>
<path d="M4450 3134 c0 -8 5 -12 10 -9 6 3 10 10 10 16 0 5 -4 9 -10 9 -5 0
-10 -7 -10 -16z"/>
<path d="M4775 3120 c-19 -7 -19 -8 -2 -15 19 -8 31 -2 26 13 -2 5 -13 6 -24
2z"/>
<path d="M4890 3085 c0 -8 5 -15 10 -15 6 0 10 7 10 15 0 8 -4 15 -10 15 -5 0
-10 -7 -10 -15z"/>
<path d="M4870 3060 c0 -5 5 -10 11 -10 5 0 7 5 4 10 -3 6 -8 10 -11 10 -2 0
-4 -4 -4 -10z"/>
<path d="M4800 3044 c0 -8 5 -12 10 -9 6 3 10 10 10 16 0 5 -4 9 -10 9 -5 0
-10 -7 -10 -16z"/>
<path d="M4890 3010 c0 -22 7 -25 29 -11 11 7 9 11 -8 20 -18 10 -21 9 -21 -9z"/>
<path d="M260 1160 c0 -5 5 -10 10 -10 6 0 10 5 10 10 0 6 -4 10 -10 10 -5 0
-10 -4 -10 -10z"/>
<path d="M630 1039 c0 -5 5 -7 10 -4 6 3 10 8 10 11 0 2 -4 4 -10 4 -5 0 -10
-5 -10 -11z"/>
<path d="M600 1010 c0 -5 4 -10 9 -10 6 0 13 5 16 10 3 6 -1 10 -9 10 -9 0
-16 -4 -16 -10z"/>
<path d="M602 948 c-17 -17 -15 -31 4 -24 13 5 14 1 9 -23 -5 -22 -2 -30 12
-35 9 -4 14 -4 11 0 -4 4 -1 15 6 26 11 15 11 25 2 43 -12 27 -26 31 -44 13z"/>
<path d="M370 860 c0 -5 5 -10 10 -10 6 0 10 5 10 10 0 6 -4 10 -10 10 -5 0
-10 -4 -10 -10z"/>
<path d="M416 824 c-4 -10 2 -14 19 -14 30 0 33 16 6 23 -12 3 -22 -1 -25 -9z"/>
<path d="M331 814 c0 -11 3 -14 6 -6 3 7 2 16 -1 19 -3 4 -6 -2 -5 -13z"/>
<path d="M80 510 c0 -5 9 -10 20 -10 11 0 20 5 20 10 0 6 -9 10 -20 10 -11 0
-20 -4 -20 -10z"/>
<path d="M210 450 c0 -5 5 -10 11 -10 5 0 7 5 4 10 -3 6 -8 10 -11 10 -2 0 -4
-4 -4 -10z"/>
<path d="M321 414 c0 -11 3 -14 6 -6 3 7 2 16 -1 19 -3 4 -6 -2 -5 -13z"/>
<path d="M295 390 c-3 -5 1 -10 10 -10 9 0 13 5 10 10 -3 6 -8 10 -10 10 -2 0
-7 -4 -10 -10z"/>
<path d="M237 377 c-3 -8 -2 -19 3 -26 5 -10 9 -8 14 4 3 9 6 21 6 26 0 14
-17 11 -23 -4z"/>
<path d="M153 65 c0 -14 3 -28 8 -31 5 -3 9 9 9 25 0 17 -4 31 -9 31 -5 0 -8
-11 -8 -25z"/>
<path d="M187 28 c-8 -30 -1 -35 23 -13 25 23 26 35 1 35 -11 0 -21 -9 -24
-22z"/>
<path d="M317 29 c7 -7 15 -10 18 -7 3 3 -2 9 -12 12 -14 6 -15 5 -6 -5z"/>
<path d="M255 20 c-4 -6 -11 -8 -16 -5 -5 4 -9 1 -9 -4 0 -6 9 -11 20 -11 11
0 20 7 20 15 0 17 -6 19 -15 5z"/>
<path d="M370 10 c0 -5 5 -10 11 -10 5 0 7 5 4 10 -3 6 -8 10 -11 10 -2 0 -4
-4 -4 -10z"/>
</g>
</svg>
